<svg xmlns="http://www.w3.org/2000/svg" width="900" height="500" viewBox="0 0 900 500">
<rect width="100%" height="100%" fill="#ffffff"/>
<text x="450.0" y="36.0" font-family="Arial, sans-serif" font-size="22" text-anchor="middle" fill="#17202a">128K Prefill Memory Curve</text>
<line x1="90" y1="410" x2="860" y2="410" stroke="#34495e"/>
<line x1="90" y1="70" x2="90" y2="410" stroke="#34495e"/>
<text x="80.0" y="84.0" font-family="Arial, sans-serif" font-size="12" text-anchor="end" fill="#17202a">GiB</text>
<text x="450.0" y="472.0" font-family="Arial, sans-serif" font-size="13" text-anchor="middle" fill="#17202a">context tokens</text>
<polyline points="102.0,210.8 114.1,178.4 126.1,154.0 138.1,117.4 150.2,113.2 162.2,113.2 174.2,113.2 186.3,113.2 198.3,113.2 210.3,113.2 222.3,113.2 234.4,113.2 246.4,113.2 258.4,113.2 270.5,113.2 282.5,113.2 294.5,113.2 306.6,113.2 318.6,113.2 330.6,113.2 342.7,113.2 354.7,113.2 366.7,113.2 378.8,113.2 390.8,113.2 402.8,113.2 414.9,113.2 426.9,113.2 438.9,113.2 451.0,113.2 463.0,113.2 475.0,113.2 487.0,113.2 499.1,113.2 511.1,113.2 523.1,113.2 535.2,113.2 547.2,113.2 559.2,113.2 571.3,113.2 583.3,113.2 595.3,113.2 607.4,113.2 619.4,113.2 631.4,113.2 643.5,113.2 655.5,113.2 667.5,113.2 679.6,113.2 691.6,113.2 703.6,113.2 715.7,113.2 727.7,113.2 739.7,113.2 751.7,113.2 763.8,113.2 775.8,113.2 787.8,113.2 799.9,113.2 811.9,113.2 823.9,113.2 836.0,113.2 848.0,113.2 860.0,113.2" fill="none" stroke="#8e44ad" stroke-width="2.5"/>
<polyline points="102.0,204.0 114.1,171.4 126.1,147.1 138.1,110.5 150.2,106.4 162.2,106.4 174.2,106.4 186.3,106.4 198.3,106.4 210.3,106.4 222.3,106.4 234.4,106.4 246.4,106.4 258.4,106.4 270.5,106.4 282.5,106.4 294.5,106.4 306.6,106.4 318.6,106.4 330.6,106.4 342.7,106.4 354.7,106.4 366.7,106.4 378.8,106.4 390.8,106.4 402.8,106.4 414.9,106.4 426.9,106.4 438.9,106.4 451.0,106.4 463.0,106.4 475.0,106.4 487.0,106.4 499.1,106.4 511.1,106.4 523.1,106.4 535.2,106.4 547.2,106.4 559.2,106.4 571.3,106.4 583.3,106.4 595.3,106.4 607.4,106.4 619.4,106.4 631.4,106.4 643.5,106.4 655.5,106.4 667.5,106.4 679.6,106.4 691.6,106.4 703.6,106.4 715.7,106.4 727.7,106.4 739.7,106.4 751.7,106.4 763.8,106.4 775.8,106.4 787.8,106.4 799.9,106.4 811.9,106.4 823.9,106.4 836.0,106.4 848.0,106.4 860.0,106.4" fill="none" stroke="#16a085" stroke-width="2.5"/>
<line x1="102" y1="92" x2="126" y2="92" stroke="#8e44ad" stroke-width="3"/>
<text x="134.0" y="96.0" font-family="Arial, sans-serif" font-size="13" text-anchor="start" fill="#17202a">torch reserved GiB</text>
<line x1="102" y1="116" x2="126" y2="116" stroke="#16a085" stroke-width="3"/>
<text x="134.0" y="120.0" font-family="Arial, sans-serif" font-size="13" text-anchor="start" fill="#17202a">nvidia-smi process GiB</text>
</svg>
