<svg xmlns="http://www.w3.org/2000/svg" width="900" height="500" viewBox="0 0 900 500">
<rect width="100%" height="100%" fill="#ffffff"/>
<text x="450.0" y="36.0" font-family="Arial, sans-serif" font-size="22" text-anchor="middle" fill="#17202a">128K Prefill KV Residency</text>
<line x1="90" y1="410" x2="860" y2="410" stroke="#34495e"/>
<line x1="90" y1="70" x2="90" y2="410" stroke="#34495e"/>
<text x="80.0" y="84.0" font-family="Arial, sans-serif" font-size="12" text-anchor="end" fill="#17202a">K tokens</text>
<text x="450.0" y="472.0" font-family="Arial, sans-serif" font-size="13" text-anchor="middle" fill="#17202a">context tokens</text>
<polyline points="102.0,404.9 114.1,399.9 126.1,394.8 138.1,389.8 150.2,389.8 162.2,389.8 174.2,389.8 186.3,389.8 198.3,389.8 210.3,389.8 222.3,389.8 234.4,389.8 246.4,389.8 258.4,389.8 270.5,389.8 282.5,389.8 294.5,389.8 306.6,389.8 318.6,389.8 330.6,389.8 342.7,389.8 354.7,389.8 366.7,389.8 378.8,389.8 390.8,389.8 402.8,389.8 414.9,389.8 426.9,389.8 438.9,389.8 451.0,389.8 463.0,389.8 475.0,389.8 487.0,389.8 499.1,389.8 511.1,389.8 523.1,389.8 535.2,389.8 547.2,389.8 559.2,389.8 571.3,389.8 583.3,389.8 595.3,389.8 607.4,389.8 619.4,389.8 631.4,389.8 643.5,389.8 655.5,389.8 667.5,389.8 679.6,389.8 691.6,389.8 703.6,389.8 715.7,389.8 727.7,389.8 739.7,389.8 751.7,389.8 763.8,389.8 775.8,389.8 787.8,389.8 799.9,389.8 811.9,389.8 823.9,389.8 836.0,389.8 848.0,389.8 860.0,389.8" fill="none" stroke="#2e86ab" stroke-width="2.5"/>
<polyline points="102.0,410.0 114.1,410.0 126.1,410.0 138.1,410.0 150.2,404.9 162.2,399.9 174.2,394.8 186.3,389.8 198.3,384.7 210.3,379.6 222.3,374.6 234.4,369.5 246.4,364.5 258.4,359.4 270.5,354.3 282.5,349.3 294.5,344.2 306.6,339.2 318.6,334.1 330.6,329.0 342.7,324.0 354.7,318.9 366.7,313.9 378.8,308.8 390.8,303.8 402.8,298.7 414.9,293.6 426.9,288.6 438.9,283.5 451.0,278.5 463.0,273.4 475.0,268.3 487.0,263.3 499.1,258.2 511.1,253.2 523.1,248.1 535.2,243.0 547.2,238.0 559.2,232.9 571.3,227.9 583.3,222.8 595.3,217.7 607.4,212.7 619.4,207.6 631.4,202.6 643.5,197.5 655.5,192.4 667.5,187.4 679.6,182.3 691.6,177.3 703.6,172.2 715.7,167.1 727.7,162.1 739.7,157.0 751.7,152.0 763.8,146.9 775.8,141.8 787.8,136.8 799.9,131.7 811.9,126.7 823.9,121.6 836.0,116.5 848.0,111.5 860.0,106.4" fill="none" stroke="#d35400" stroke-width="2.5"/>
<line x1="102" y1="92" x2="126" y2="92" stroke="#2e86ab" stroke-width="3"/>
<text x="134.0" y="96.0" font-family="Arial, sans-serif" font-size="13" text-anchor="start" fill="#17202a">Active HBM KV (K tokens)</text>
<line x1="102" y1="116" x2="126" y2="116" stroke="#d35400" stroke-width="3"/>
<text x="134.0" y="120.0" font-family="Arial, sans-serif" font-size="13" text-anchor="start" fill="#17202a">DRAM compressed KV (K tokens)</text>
</svg>
